<svg xmlns="http://www.w3.org/2000/svg" width="1200" height="630" viewBox="0 0 1200 630" role="img" aria-labelledby="title desc">
  <title id="title">Business Ads Guide</title>
  <desc id="desc">Independent business advertising guide focused on TikTok ads, launch strategy, and market expansion.</desc>
  <defs>
    <linearGradient id="bg" x1="0" y1="0" x2="1" y2="1">
      <stop offset="0%" stop-color="#ffffff"/>
      <stop offset="100%" stop-color="#f3f5fa"/>
    </linearGradient>
    <linearGradient id="cyan" x1="0" y1="0" x2="1" y2="1">
      <stop offset="0%" stop-color="#18d8f6"/>
      <stop offset="100%" stop-color="#8af3ff"/>
    </linearGradient>
    <linearGradient id="red" x1="0" y1="0" x2="1" y2="1">
      <stop offset="0%" stop-color="#ff4155"/>
      <stop offset="100%" stop-color="#ff9aa5"/>
    </linearGradient>
  </defs>
  <rect width="1200" height="630" fill="#071019"/>
  <circle cx="180" cy="110" r="120" fill="url(#cyan)" opacity="0.22"/>
  <circle cx="1030" cy="110" r="88" fill="url(#red)" opacity="0.22"/>
  <rect x="86" y="120" width="1028" height="392" rx="36" fill="#0e1824" stroke="rgba(255,255,255,0.1)"/>
  <rect x="108" y="144" width="320" height="14" rx="7" fill="#18d8f6"/>
  <text x="108" y="238" font-family="Inter, Arial, sans-serif" font-weight="800" font-size="68" fill="#ffffff">Business Ads Guide</text>
  <text x="108" y="304" font-family="Inter, Arial, sans-serif" font-weight="500" font-size="31" fill="#b8c3d1">Independent TikTok advertising guidance</text>
  <text x="108" y="352" font-family="Inter, Arial, sans-serif" font-weight="500" font-size="31" fill="#b8c3d1">for businesses, agencies, ecommerce,</text>
  <text x="108" y="400" font-family="Inter, Arial, sans-serif" font-weight="500" font-size="31" fill="#b8c3d1">and international growth planning.</text>
  <rect x="108" y="438" width="246" height="54" rx="27" fill="#18d8f6"/>
  <text x="148" y="473" font-family="Inter, Arial, sans-serif" font-weight="800" font-size="26" fill="#071019">Explore the Guide</text>
  <rect x="858" y="202" width="190" height="190" rx="32" fill="#131f2d"/>
  <circle cx="953" cy="297" r="58" fill="url(#cyan)"/>
  <rect x="904" y="258" width="94" height="18" rx="9" fill="#071019"/>
  <rect x="904" y="288" width="74" height="18" rx="9" fill="#071019"/>
  <rect x="904" y="318" width="86" height="18" rx="9" fill="#071019"/>
  <rect x="822" y="432" width="212" height="18" rx="9" fill="#ff4155"/>
</svg>